<mxfile host="Electron" modified="2024-06-23T14:29:35.042Z" agent="Mozilla/5.0 (Windows NT 10.0; Win64; x64) AppleWebKit/537.36 (KHTML, like Gecko) draw.io/24.4.0 Chrome/120.0.6099.109 Electron/28.1.0 Safari/537.36" etag="5IgcXzyGDs3hHCEHB-Hz" version="24.4.0" type="device">
  <diagram name="Страница — 1" id="PZNePvbb96YA9LaB6YvR">
    <mxGraphModel dx="1290" dy="629" grid="1" gridSize="10" guides="1" tooltips="1" connect="1" arrows="1" fold="1" page="1" pageScale="1" pageWidth="827" pageHeight="1169" math="0" shadow="0">
      <root>
        <mxCell id="0" />
        <mxCell id="1" parent="0" />
        <mxCell id="bLP7U-DRUazNZ7qZVQsi-23" style="edgeStyle=orthogonalEdgeStyle;rounded=0;orthogonalLoop=1;jettySize=auto;html=1;entryX=0.5;entryY=0;entryDx=0;entryDy=0;" edge="1" parent="1" source="bLP7U-DRUazNZ7qZVQsi-1" target="bLP7U-DRUazNZ7qZVQsi-2">
          <mxGeometry relative="1" as="geometry" />
        </mxCell>
        <mxCell id="bLP7U-DRUazNZ7qZVQsi-1" value="Start" style="ellipse;whiteSpace=wrap;html=1;" vertex="1" parent="1">
          <mxGeometry x="80" y="10" width="160" height="50" as="geometry" />
        </mxCell>
        <mxCell id="bLP7U-DRUazNZ7qZVQsi-24" style="edgeStyle=orthogonalEdgeStyle;rounded=0;orthogonalLoop=1;jettySize=auto;html=1;entryX=0.5;entryY=0;entryDx=0;entryDy=0;" edge="1" parent="1" source="bLP7U-DRUazNZ7qZVQsi-2" target="bLP7U-DRUazNZ7qZVQsi-4">
          <mxGeometry relative="1" as="geometry" />
        </mxCell>
        <mxCell id="bLP7U-DRUazNZ7qZVQsi-2" value="Monitor Performance Metrics" style="rounded=0;whiteSpace=wrap;html=1;" vertex="1" parent="1">
          <mxGeometry x="80" y="80" width="160" height="60" as="geometry" />
        </mxCell>
        <mxCell id="bLP7U-DRUazNZ7qZVQsi-26" style="edgeStyle=orthogonalEdgeStyle;rounded=0;orthogonalLoop=1;jettySize=auto;html=1;entryX=0.5;entryY=0;entryDx=0;entryDy=0;" edge="1" parent="1" source="bLP7U-DRUazNZ7qZVQsi-4" target="bLP7U-DRUazNZ7qZVQsi-5">
          <mxGeometry relative="1" as="geometry" />
        </mxCell>
        <mxCell id="bLP7U-DRUazNZ7qZVQsi-4" value="Evaluate Thresholds" style="rounded=0;whiteSpace=wrap;html=1;" vertex="1" parent="1">
          <mxGeometry x="80" y="170" width="160" height="60" as="geometry" />
        </mxCell>
        <mxCell id="bLP7U-DRUazNZ7qZVQsi-27" style="edgeStyle=orthogonalEdgeStyle;rounded=0;orthogonalLoop=1;jettySize=auto;html=1;entryX=0.5;entryY=0;entryDx=0;entryDy=0;" edge="1" parent="1" source="bLP7U-DRUazNZ7qZVQsi-5" target="bLP7U-DRUazNZ7qZVQsi-7">
          <mxGeometry relative="1" as="geometry" />
        </mxCell>
        <mxCell id="bLP7U-DRUazNZ7qZVQsi-44" value="TRUE" style="edgeLabel;html=1;align=center;verticalAlign=middle;resizable=0;points=[];" vertex="1" connectable="0" parent="bLP7U-DRUazNZ7qZVQsi-27">
          <mxGeometry x="0.4933" relative="1" as="geometry">
            <mxPoint as="offset" />
          </mxGeometry>
        </mxCell>
        <mxCell id="bLP7U-DRUazNZ7qZVQsi-43" style="edgeStyle=orthogonalEdgeStyle;rounded=0;orthogonalLoop=1;jettySize=auto;html=1;exitX=1;exitY=0.5;exitDx=0;exitDy=0;" edge="1" parent="1" source="bLP7U-DRUazNZ7qZVQsi-5" target="bLP7U-DRUazNZ7qZVQsi-6">
          <mxGeometry relative="1" as="geometry" />
        </mxCell>
        <mxCell id="bLP7U-DRUazNZ7qZVQsi-45" value="FALSE" style="edgeLabel;html=1;align=center;verticalAlign=middle;resizable=0;points=[];" vertex="1" connectable="0" parent="bLP7U-DRUazNZ7qZVQsi-43">
          <mxGeometry x="-0.56" y="-1" relative="1" as="geometry">
            <mxPoint x="15" y="-1" as="offset" />
          </mxGeometry>
        </mxCell>
        <mxCell id="bLP7U-DRUazNZ7qZVQsi-5" value="Threshold Exceeded?" style="rhombus;whiteSpace=wrap;html=1;" vertex="1" parent="1">
          <mxGeometry x="80" y="250" width="160" height="60" as="geometry" />
        </mxCell>
        <mxCell id="bLP7U-DRUazNZ7qZVQsi-6" value="Continue Monitoring" style="rounded=0;whiteSpace=wrap;html=1;" vertex="1" parent="1">
          <mxGeometry x="310" y="250" width="160" height="60" as="geometry" />
        </mxCell>
        <mxCell id="bLP7U-DRUazNZ7qZVQsi-28" style="edgeStyle=orthogonalEdgeStyle;rounded=0;orthogonalLoop=1;jettySize=auto;html=1;entryX=0.5;entryY=0;entryDx=0;entryDy=0;" edge="1" parent="1" source="bLP7U-DRUazNZ7qZVQsi-7" target="bLP7U-DRUazNZ7qZVQsi-8">
          <mxGeometry relative="1" as="geometry" />
        </mxCell>
        <mxCell id="bLP7U-DRUazNZ7qZVQsi-7" value="Scale Out Process" style="rounded=0;whiteSpace=wrap;html=1;" vertex="1" parent="1">
          <mxGeometry x="80" y="330" width="160" height="60" as="geometry" />
        </mxCell>
        <mxCell id="bLP7U-DRUazNZ7qZVQsi-29" style="edgeStyle=orthogonalEdgeStyle;rounded=0;orthogonalLoop=1;jettySize=auto;html=1;entryX=0.5;entryY=0;entryDx=0;entryDy=0;" edge="1" parent="1" source="bLP7U-DRUazNZ7qZVQsi-8" target="bLP7U-DRUazNZ7qZVQsi-9">
          <mxGeometry relative="1" as="geometry" />
        </mxCell>
        <mxCell id="bLP7U-DRUazNZ7qZVQsi-8" value="Add New Server Instances" style="rounded=0;whiteSpace=wrap;html=1;" vertex="1" parent="1">
          <mxGeometry x="80" y="420" width="160" height="60" as="geometry" />
        </mxCell>
        <mxCell id="bLP7U-DRUazNZ7qZVQsi-30" style="edgeStyle=orthogonalEdgeStyle;rounded=0;orthogonalLoop=1;jettySize=auto;html=1;entryX=0.5;entryY=0;entryDx=0;entryDy=0;" edge="1" parent="1" source="bLP7U-DRUazNZ7qZVQsi-9" target="bLP7U-DRUazNZ7qZVQsi-10">
          <mxGeometry relative="1" as="geometry" />
        </mxCell>
        <mxCell id="bLP7U-DRUazNZ7qZVQsi-9" value="Add New Database Instances" style="rounded=0;whiteSpace=wrap;html=1;" vertex="1" parent="1">
          <mxGeometry x="80" y="510" width="160" height="60" as="geometry" />
        </mxCell>
        <mxCell id="bLP7U-DRUazNZ7qZVQsi-31" style="edgeStyle=orthogonalEdgeStyle;rounded=0;orthogonalLoop=1;jettySize=auto;html=1;entryX=0.5;entryY=0;entryDx=0;entryDy=0;" edge="1" parent="1" source="bLP7U-DRUazNZ7qZVQsi-10" target="bLP7U-DRUazNZ7qZVQsi-11">
          <mxGeometry relative="1" as="geometry" />
        </mxCell>
        <mxCell id="bLP7U-DRUazNZ7qZVQsi-10" value="Rebalance Load" style="rounded=0;whiteSpace=wrap;html=1;" vertex="1" parent="1">
          <mxGeometry x="80" y="600" width="160" height="60" as="geometry" />
        </mxCell>
        <mxCell id="bLP7U-DRUazNZ7qZVQsi-32" style="edgeStyle=orthogonalEdgeStyle;rounded=0;orthogonalLoop=1;jettySize=auto;html=1;entryX=0.5;entryY=0;entryDx=0;entryDy=0;" edge="1" parent="1" source="bLP7U-DRUazNZ7qZVQsi-11" target="bLP7U-DRUazNZ7qZVQsi-12">
          <mxGeometry relative="1" as="geometry" />
        </mxCell>
        <mxCell id="bLP7U-DRUazNZ7qZVQsi-11" value="Update System Configuration" style="rounded=0;whiteSpace=wrap;html=1;" vertex="1" parent="1">
          <mxGeometry x="80" y="690" width="160" height="60" as="geometry" />
        </mxCell>
        <mxCell id="bLP7U-DRUazNZ7qZVQsi-33" style="edgeStyle=orthogonalEdgeStyle;rounded=0;orthogonalLoop=1;jettySize=auto;html=1;entryX=0.5;entryY=0;entryDx=0;entryDy=0;" edge="1" parent="1" source="bLP7U-DRUazNZ7qZVQsi-12" target="bLP7U-DRUazNZ7qZVQsi-13">
          <mxGeometry relative="1" as="geometry" />
        </mxCell>
        <mxCell id="bLP7U-DRUazNZ7qZVQsi-12" value="Verify Performance" style="rounded=0;whiteSpace=wrap;html=1;" vertex="1" parent="1">
          <mxGeometry x="80" y="780" width="160" height="60" as="geometry" />
        </mxCell>
        <mxCell id="bLP7U-DRUazNZ7qZVQsi-34" style="edgeStyle=orthogonalEdgeStyle;rounded=0;orthogonalLoop=1;jettySize=auto;html=1;entryX=0.5;entryY=0;entryDx=0;entryDy=0;" edge="1" parent="1" source="bLP7U-DRUazNZ7qZVQsi-13" target="bLP7U-DRUazNZ7qZVQsi-15">
          <mxGeometry relative="1" as="geometry" />
        </mxCell>
        <mxCell id="bLP7U-DRUazNZ7qZVQsi-41" value="TRUE" style="edgeLabel;html=1;align=center;verticalAlign=middle;resizable=0;points=[];" vertex="1" connectable="0" parent="bLP7U-DRUazNZ7qZVQsi-34">
          <mxGeometry x="0.5867" y="-1" relative="1" as="geometry">
            <mxPoint as="offset" />
          </mxGeometry>
        </mxCell>
        <mxCell id="bLP7U-DRUazNZ7qZVQsi-38" style="edgeStyle=orthogonalEdgeStyle;rounded=0;orthogonalLoop=1;jettySize=auto;html=1;exitX=1;exitY=0.5;exitDx=0;exitDy=0;entryX=0;entryY=0.5;entryDx=0;entryDy=0;" edge="1" parent="1" source="bLP7U-DRUazNZ7qZVQsi-13" target="bLP7U-DRUazNZ7qZVQsi-14">
          <mxGeometry relative="1" as="geometry" />
        </mxCell>
        <mxCell id="bLP7U-DRUazNZ7qZVQsi-40" value="FALSE" style="edgeLabel;html=1;align=center;verticalAlign=middle;resizable=0;points=[];" vertex="1" connectable="0" parent="bLP7U-DRUazNZ7qZVQsi-38">
          <mxGeometry x="-0.06" y="-4" relative="1" as="geometry">
            <mxPoint as="offset" />
          </mxGeometry>
        </mxCell>
        <mxCell id="bLP7U-DRUazNZ7qZVQsi-13" value="Performance Acceptable?" style="rhombus;whiteSpace=wrap;html=1;" vertex="1" parent="1">
          <mxGeometry x="80" y="860" width="160" height="60" as="geometry" />
        </mxCell>
        <mxCell id="bLP7U-DRUazNZ7qZVQsi-14" value="Scale Out Process" style="rounded=0;whiteSpace=wrap;html=1;" vertex="1" parent="1">
          <mxGeometry x="320" y="860" width="160" height="60" as="geometry" />
        </mxCell>
        <mxCell id="bLP7U-DRUazNZ7qZVQsi-35" style="edgeStyle=orthogonalEdgeStyle;rounded=0;orthogonalLoop=1;jettySize=auto;html=1;entryX=0.5;entryY=0;entryDx=0;entryDy=0;" edge="1" parent="1" source="bLP7U-DRUazNZ7qZVQsi-15" target="bLP7U-DRUazNZ7qZVQsi-16">
          <mxGeometry relative="1" as="geometry" />
        </mxCell>
        <mxCell id="bLP7U-DRUazNZ7qZVQsi-15" value="Repeat Monitoring" style="rounded=0;whiteSpace=wrap;html=1;" vertex="1" parent="1">
          <mxGeometry x="80" y="940" width="160" height="60" as="geometry" />
        </mxCell>
        <mxCell id="bLP7U-DRUazNZ7qZVQsi-16" value="End" style="ellipse;whiteSpace=wrap;html=1;" vertex="1" parent="1">
          <mxGeometry x="80" y="1030" width="160" height="40" as="geometry" />
        </mxCell>
        <mxCell id="bLP7U-DRUazNZ7qZVQsi-17" value="&lt;div style=&quot;&quot;&gt;&lt;span style=&quot;font-size: 18px; background-color: rgb(255, 255, 255); font-family: NaMU, Arial, sans-serif; white-space-collapse: preserve;&quot;&gt;Составьте блок схему для алгоритма горизонтальной масштабируемости инфраструктуры, в которую входит БД и серверные мощности (процессоры).&lt;/span&gt;&lt;/div&gt;" style="text;html=1;align=left;verticalAlign=middle;whiteSpace=wrap;rounded=0;" vertex="1" parent="1">
          <mxGeometry x="430" y="10" width="370" height="90" as="geometry" />
        </mxCell>
      </root>
    </mxGraphModel>
  </diagram>
</mxfile>
